<svg xmlns="http://www.w3.org/2000/svg" width="1000" height="1000" id="empty" style=""><g id="icon"><path fill="#00acee" d="M259.80998252012995 229.0000020861625L311.90998252013 259.1000020861625C316.20998252013 261.6000020861625 316.20998252013 265.6000020861625 311.90998252013 268.1000020861625L259.80998252012995 298.2000020861625C255.50998252012997 300.7000020861625 252.00998252012997 298.7000020861625 252.00998252012997 293.7000020861625L252.00998252012997 233.5000020861625C252.00998252012997 228.5000020861625 255.50998252012997 226.5000020861625 259.80998252012995 229.0000020861625Z " transform="matrix(2.500000153385506,0,0,2.5,-183.90001651624448,-159)"></path><path fill="#aa36a5" d="M278.60998252012996 130.00000208616254L282.30998252012995 132.10000208616253C282.80998252012995 132.40000208616254 282.90998252013 133.00000208616254 282.70998252013 133.50000208616254L279.20998252013 139.60000208616253C279.10998252012996 139.80000208616252 278.90998252013 140.00000208616254 278.60998252012996 140.10000208616253L278.60998252012996 196.60000208616253L329.20998252013 225.80000208616252L392.30998252012995 189.40000208616254C391.40998252013 188.40000208616254 390.40998252013 187.60000208616253 389.30998252012995 187.00000208616254L282.10998252012996 125.10000208616253C281.00998252012994 124.50000208616254 279.80998252012995 124.00000208616254 278.50998252012994 123.70000208616253L278.50998252012994 130.00000208616254ZM363.90998252013 188.50000208616254L367.40998252013 182.40000208616254C367.70998252013 181.90000208616254 368.30998252012995 181.80000208616252 368.80998252012995 182.00000208616254L376.50998252012994 186.40000208616254C377.00998252012994 186.70000208616253 377.10998252012996 187.30000208616252 376.90998252013 187.80000208616252L373.40998252013 193.90000208616254C373.10998252012996 194.40000208616254 372.50998252012994 194.50000208616254 372.00998252012994 194.30000208616252L364.30998252012995 189.90000208616254C363.80998252012995 189.60000208616253 363.70998252013 189.00000208616254 363.90998252013 188.50000208616254ZM345.10998252012996 177.70000208616253L348.60998252012996 171.60000208616253C348.90998252013 171.10000208616253 349.50998252012994 171.00000208616254 350.00998252012994 171.20000208616253L357.70998252013 175.60000208616253C358.20998252013 175.90000208616254 358.30998252012995 176.50000208616254 358.10998252012996 177.00000208616254L354.60998252012996 183.10000208616253C354.30998252012995 183.60000208616253 353.70998252013 183.70000208616253 353.20998252013 183.50000208616254L345.50998252012994 179.10000208616253C345.00998252012994 178.80000208616252 344.80998252012995 178.10000208616253 345.10998252012996 177.70000208616253ZM326.30998252012995 166.80000208616252L329.80998252012995 160.70000208616253C330.10998252012996 160.20000208616253 330.70998252013 160.10000208616253 331.20998252013 160.30000208616252L338.90998252013 164.70000208616253C339.40998252013 165.00000208616254 339.50998252012994 165.60000208616253 339.30998252012995 166.10000208616253L335.80998252012995 172.20000208616253C335.50998252012994 172.70000208616253 334.90998252013 172.80000208616252 334.40998252013 172.60000208616253L326.70998252013 168.20000208616253C326.10998252012996 167.90000208616254 326.00998252012994 167.30000208616252 326.30998252012995 166.80000208616252ZM325.20998252013 206.10000208616253L333.00998252012994 210.60000208616253C333.50998252012994 210.90000208616254 333.60998252012996 211.50000208616254 333.40998252013 212.00000208616254L329.90998252013 218.10000208616253C329.60998252012996 218.60000208616253 329.00998252012994 218.70000208616253 328.50998252012994 218.50000208616254L320.70998252013 214.00000208616254C320.20998252013 213.70000208616253 320.10998252012996 213.10000208616253 320.30998252012995 212.60000208616253L323.80998252012995 206.50000208616254C324.20998252013 206.00000208616254 324.80998252012995 205.90000208616254 325.20998252013 206.10000208616253ZM307.40998252013 155.90000208616254L310.90998252013 149.80000208616252C311.20998252013 149.30000208616252 311.80998252012995 149.20000208616253 312.30998252012995 149.40000208616254L320.00998252012994 153.80000208616252C320.50998252012994 154.10000208616253 320.60998252012996 154.70000208616253 320.40998252013 155.20000208616253L316.90998252013 161.30000208616252C316.60998252012996 161.80000208616252 316.00998252012994 161.90000208616254 315.50998252012994 161.70000208616253L307.80998252012995 157.30000208616252C307.30998252012995 157.00000208616254 307.10998252012996 156.40000208616254 307.40998252013 155.90000208616254ZM306.20998252013 195.10000208616253L314.00998252012994 199.60000208616253C314.50998252012994 199.90000208616254 314.60998252012996 200.50000208616254 314.40998252013 201.00000208616254L310.90998252013 207.10000208616253C310.60998252012996 207.60000208616253 310.00998252012994 207.70000208616253 309.50998252012994 207.50000208616254L301.70998252013 203.00000208616254C301.20998252013 202.70000208616253 301.10998252012996 202.10000208616253 301.30998252012995 201.60000208616253L304.80998252012995 195.50000208616254C305.10998252012996 195.00000208616254 305.70998252013 194.90000208616254 306.20998252013 195.10000208616253ZM288.60998252012996 145.00000208616254L292.10998252012996 138.90000208616254C292.40998252013 138.40000208616254 293.00998252012994 138.30000208616252 293.50998252012994 138.50000208616254L301.20998252013 142.90000208616254C301.70998252013 143.20000208616253 301.80998252012995 143.80000208616252 301.60998252012996 144.30000208616252L298.10998252012996 150.40000208616254C297.80998252012995 150.90000208616254 297.20998252013 151.00000208616254 296.70998252013 150.80000208616252L289.00998252012994 146.40000208616254C288.50998252012994 146.10000208616253 288.30998252012995 145.50000208616254 288.60998252012996 145.00000208616254ZM287.10998252012996 184.10000208616253L294.90998252013 188.60000208616253C295.40998252013 188.90000208616254 295.50998252012994 189.50000208616254 295.30998252012995 190.00000208616254L291.80998252012995 196.10000208616253C291.50998252012994 196.60000208616253 290.90998252013 196.70000208616253 290.40998252013 196.50000208616254L282.60998252012996 192.00000208616254C282.10998252012996 191.70000208616253 282.00998252012994 191.10000208616253 282.20998252013 190.60000208616253L285.70998252013 184.50000208616254C286.10998252012996 184.00000208616254 286.70998252013 183.90000208616254 287.10998252012996 184.10000208616253Z " transform="matrix(2.500000153385506,0,0,2.5,-183.90001651624448,-159)"></path><path fill="#aa36a5" d="M149.80998252013 197.90000208616252C149.40998252012997 199.2000020861625 149.20998252012998 200.5000020861625 149.20998252012998 201.7000020861625L149.20998252012998 325.40000208616254C149.20998252012998 326.6000020861625 149.40998252012997 327.90000208616254 149.80998252013 329.2000020861625L155.30998252012998 326.00000208616245L155.30998252012998 321.7000020861625C155.30998252012998 321.1000020861625 155.70998252012998 320.7000020861625 156.30998252012998 320.7000020861625L163.30998252012998 320.7000020861625C163.60998252013 320.7000020861625 163.80998252012998 320.8000020861625 164.00998252013 321.00000208616245L197.90998252013 301.40000208616254C197.90998252013 301.40000208616254 197.90998252013 298.40000208616254 197.90998252013 294.00000208616245C197.90998252013 293.40000208616254 198.30998252012998 293.00000208616245 198.90998252013 293.00000208616245L205.90998252013 293.00000208616245C206.50998252013 293.00000208616245 206.90998252013 293.40000208616254 206.90998252013 294.00000208616245C206.90998252013 294.8000020861625 206.90998252013 295.6000020861625 206.90998252013 296.3000020861625L212.90998252013 292.8000020861625L212.90998252013 234.40000208616252L149.80998252013 197.90000208616252ZM164.40998252013 308.90000208616254C164.40998252013 309.50000208616245 164.00998252013 309.90000208616254 163.40998252013 309.90000208616254L156.40998252013 309.90000208616254C155.80998252012998 309.90000208616254 155.40998252013 309.50000208616245 155.40998252013 308.90000208616254L155.40998252013 300.00000208616245C155.40998252013 299.40000208616254 155.80998252012998 299.00000208616245 156.40998252013 299.00000208616245L163.40998252013 299.00000208616245C164.00998252013 299.00000208616245 164.40998252013 299.40000208616254 164.40998252013 300.00000208616245L164.40998252013 308.90000208616254ZM164.40998252013 287.1000020861625C164.40998252013 287.7000020861625 164.00998252013 288.1000020861625 163.40998252013 288.1000020861625L156.40998252013 288.1000020861625C155.80998252012998 288.1000020861625 155.40998252013 287.7000020861625 155.40998252013 287.1000020861625L155.40998252013 278.2000020861625C155.40998252013 277.6000020861625 155.80998252012998 277.2000020861625 156.40998252013 277.2000020861625L163.40998252013 277.2000020861625C164.00998252013 277.2000020861625 164.40998252013 277.6000020861625 164.40998252013 278.2000020861625L164.40998252013 287.1000020861625ZM164.40998252013 265.3000020861625C164.40998252013 265.90000208616254 164.00998252013 266.3000020861625 163.40998252013 266.3000020861625L156.40998252013 266.3000020861625C155.80998252012998 266.3000020861625 155.40998252013 265.90000208616254 155.40998252013 265.3000020861625L155.40998252013 256.40000208616254C155.40998252013 255.8000020861625 155.80998252012998 255.40000208616252 156.40998252013 255.40000208616252L163.40998252013 255.40000208616252C164.00998252013 255.40000208616252 164.40998252013 255.8000020861625 164.40998252013 256.40000208616254L164.40998252013 265.3000020861625ZM164.40998252013 243.6000020861625C164.40998252013 244.2000020861625 164.00998252013 244.6000020861625 163.40998252013 244.6000020861625L156.40998252013 244.6000020861625C155.80998252012998 244.6000020861625 155.40998252013 244.2000020861625 155.40998252013 243.6000020861625L155.40998252013 234.7000020861625C155.40998252013 234.1000020861625 155.80998252012998 233.7000020861625 156.40998252013 233.7000020861625L163.40998252013 233.7000020861625C164.00998252013 233.7000020861625 164.40998252013 234.1000020861625 164.40998252013 234.7000020861625L164.40998252013 243.6000020861625ZM164.40998252013 221.8000020861625C164.40998252013 222.40000208616252 164.00998252013 222.8000020861625 163.40998252013 222.8000020861625L156.40998252013 222.8000020861625C155.80998252012998 222.8000020861625 155.40998252013 222.40000208616252 155.40998252013 221.8000020861625L155.40998252013 212.90000208616252C155.40998252013 212.3000020861625 155.80998252012998 211.90000208616252 156.40998252013 211.90000208616252L163.40998252013 211.90000208616252C164.00998252013 211.90000208616252 164.40998252013 212.3000020861625 164.40998252013 212.90000208616252L164.40998252013 221.8000020861625ZM207.00998252013 285.90000208616254C207.00998252013 286.50000208616245 206.60998252013 286.90000208616254 206.00998252013 286.90000208616254L199.00998252013 286.90000208616254C198.40998252013 286.90000208616254 198.00998252013 286.50000208616245 198.00998252013 285.90000208616254L198.00998252013 276.90000208616254C198.00998252013 276.3000020861625 198.40998252013 275.90000208616254 199.00998252013 275.90000208616254L206.00998252013 275.90000208616254C206.60998252013 275.90000208616254 207.00998252013 276.3000020861625 207.00998252013 276.90000208616254L207.00998252013 285.90000208616254ZM207.00998252013 263.90000208616254C207.00998252013 264.5000020861625 206.60998252013 264.90000208616254 206.00998252013 264.90000208616254L199.00998252013 264.90000208616254C198.40998252013 264.90000208616254 198.00998252013 264.5000020861625 198.00998252013 263.90000208616254L198.00998252013 254.90000208616252C198.00998252013 254.3000020861625 198.40998252013 253.90000208616252 199.00998252013 253.90000208616252L206.00998252013 253.90000208616252C206.60998252013 253.90000208616252 207.00998252013 254.3000020861625 207.00998252013 254.90000208616252L207.00998252013 263.90000208616254ZM207.00998252013 234.2000020861625L207.00998252013 241.90000208616252C207.00998252013 242.5000020861625 206.60998252013 242.90000208616252 206.00998252013 242.90000208616252L199.00998252013 242.90000208616252C198.40998252013 242.90000208616252 198.00998252013 242.5000020861625 198.00998252013 241.90000208616252L198.00998252013 234.2000020861625C198.00998252013 233.6000020861625 198.00998252013 232.90000208616252 198.10998252013 232.3000020861625C198.10998252013 231.8000020861625 198.70998252012998 231.40000208616252 199.20998252012998 231.40000208616252L206.10998252013 232.3000020861625C206.60998252013 232.40000208616252 207.00998252013 232.8000020861625 207.00998252013 233.3000020861625C207.00998252013 233.6000020861625 207.00998252013 233.90000208616252 207.00998252013 234.2000020861625Z " transform="matrix(2.500000153385506,0,0,2.5,-183.90001651624448,-159)"></path><path fill="#aa36a5" d="M268.60998252012996 397.2000020861625L264.80998252012995 395.00000208616245C264.30998252012995 394.7000020861625 264.20998252013 394.1000020861625 264.40998252013 393.6000020861625L267.90998252013 387.50000208616245C268.00998252012994 387.30000208616246 268.30998252012995 387.1000020861625 268.50998252012994 387.00000208616245L268.50998252012994 330.6000020861625L217.90998252012997 301.4000020861625L154.80998252012995 337.80000208616246C155.70998252012996 338.80000208616246 156.70998252012996 339.6000020861625 157.80998252012995 340.2000020861625L265.00998252012994 402.1000020861625C266.10998252012996 402.7000020861625 267.30998252012995 403.2000020861625 268.60998252012996 403.50000208616245L268.60998252012996 397.2000020861625ZM183.10998252012996 338.6000020861625L179.60998252012996 344.7000020861625C179.30998252012995 345.2000020861625 178.70998252012996 345.30000208616246 178.20998252012996 345.1000020861625L170.60998252012996 340.6000020861625C170.10998252012996 340.30000208616246 170.00998252012997 339.7000020861625 170.20998252012996 339.2000020861625L173.70998252012996 333.1000020861625C174.00998252012997 332.6000020861625 174.60998252012996 332.50000208616245 175.10998252012996 332.7000020861625L182.80998252012995 337.1000020861625C183.20998252012996 337.50000208616245 183.40998252012997 338.1000020861625 183.10998252012996 338.6000020861625ZM202.00998252012997 349.50000208616245L198.50998252012997 355.6000020861625C198.20998252012996 356.1000020861625 197.60998252012996 356.2000020861625 197.10998252012996 356.00000208616245L189.40998252012997 351.6000020861625C188.90998252012997 351.30000208616246 188.80998252012995 350.7000020861625 189.00998252012997 350.2000020861625L192.50998252012997 344.1000020861625C192.80998252012995 343.6000020861625 193.40998252012997 343.50000208616245 193.90998252012997 343.7000020861625L201.60998252012996 348.1000020861625C202.10998252012996 348.4000020861625 202.30998252012995 349.00000208616245 202.00998252012997 349.50000208616245ZM220.80998252012995 360.4000020861625L217.30998252012995 366.50000208616245C217.00998252012997 367.00000208616245 216.40998252012997 367.1000020861625 215.90998252012997 366.9000020861625L208.20998252012996 362.50000208616245C207.70998252012996 362.2000020861625 207.60998252012996 361.6000020861625 207.80998252012995 361.1000020861625L211.30998252012995 355.00000208616245C211.60998252012996 354.50000208616245 212.20998252012996 354.4000020861625 212.70998252012996 354.6000020861625L220.40998252012997 359.00000208616245C220.90998252012997 359.30000208616246 221.10998252012996 359.9000020861625 220.80998252012995 360.4000020861625ZM224.70998252012996 313.4000020861625L221.20998252012996 319.50000208616245C220.90998252012997 320.00000208616245 220.30998252012995 320.1000020861625 219.80998252012995 319.9000020861625L212.00998252012997 315.4000020861625C211.50998252012997 315.1000020861625 211.40998252012997 314.50000208616245 211.60998252012996 314.00000208616245L215.10998252012996 307.9000020861625C215.40998252012997 307.4000020861625 216.00998252012997 307.30000208616246 216.50998252012997 307.50000208616245L224.30998252012995 312.00000208616245C224.80998252012995 312.30000208616246 224.90998252012997 312.9000020861625 224.70998252012996 313.4000020861625ZM239.70998252012996 371.30000208616246L236.20998252012996 377.4000020861625C235.90998252012997 377.9000020861625 235.30998252012995 378.00000208616245 234.80998252012995 377.80000208616246L227.10998252012996 373.4000020861625C226.60998252012996 373.1000020861625 226.50998252012997 372.50000208616245 226.70998252012996 372.00000208616245L230.20998252012996 365.9000020861625C230.50998252012997 365.4000020861625 231.10998252012996 365.30000208616246 231.60998252012996 365.50000208616245L239.30998252012995 369.9000020861625C239.80998252012995 370.2000020861625 239.90998252012997 370.80000208616246 239.70998252012996 371.30000208616246ZM243.70998252012996 324.4000020861625L240.20998252012996 330.50000208616245C239.90998252012997 331.00000208616245 239.30998252012995 331.1000020861625 238.80998252012995 330.9000020861625L231.00998252012997 326.4000020861625C230.50998252012997 326.1000020861625 230.40998252012997 325.50000208616245 230.60998252012996 325.00000208616245L234.10998252012996 318.9000020861625C234.40998252012997 318.4000020861625 235.00998252012997 318.30000208616246 235.50998252012997 318.50000208616245L243.30998252012995 323.00000208616245C243.80998252012995 323.30000208616246 244.00998252012997 323.9000020861625 243.70998252012996 324.4000020861625ZM258.50998252012994 382.1000020861625L255.00998252012997 388.2000020861625C254.70998252012996 388.7000020861625 254.10998252012996 388.80000208616246 253.60998252012996 388.6000020861625L245.90998252012997 384.2000020861625C245.40998252012997 383.9000020861625 245.30998252012995 383.30000208616246 245.50998252012997 382.80000208616246L249.00998252012997 376.7000020861625C249.30998252012995 376.2000020861625 249.90998252012997 376.1000020861625 250.40998252012997 376.30000208616246L258.10998252012996 380.7000020861625C258.60998252012996 381.1000020861625 258.80998252012995 381.7000020861625 258.50998252012994 382.1000020861625ZM262.80998252012995 335.4000020861625L259.30998252012995 341.50000208616245C259.00998252012994 342.00000208616245 258.40998252013 342.1000020861625 257.90998252013 341.9000020861625L250.10998252012996 337.4000020861625C249.60998252012996 337.1000020861625 249.50998252012997 336.50000208616245 249.70998252012996 336.00000208616245L253.20998252012996 329.9000020861625C253.50998252012997 329.4000020861625 254.10998252012996 329.30000208616246 254.60998252012996 329.50000208616245L262.40998252013 334.00000208616245C262.90998252013 334.30000208616246 263.00998252012994 334.9000020861625 262.80998252012995 335.4000020861625Z " transform="matrix(2.500000153385506,0,0,2.5,-183.90001651624448,-159)"></path><path fill="#aa36a5" d="M160.40998252012997 192.50000208616254L164.10998252012996 190.30000208616252C164.60998252012996 190.00000208616254 165.20998252012996 190.20000208616253 165.50998252012997 190.70000208616253L169.00998252012997 196.80000208616252C169.10998252012996 197.00000208616254 169.20998252012996 197.30000208616252 169.10998252012996 197.60000208616253L203.80998252012995 217.60000208616253C206.50998252012997 215.60000208616253 212.30998252012995 211.80000208616252 212.30998252012995 211.80000208616252C212.80998252012995 211.50000208616254 213.40998252012997 211.70000208616253 213.70998252012996 212.20000208616253L217.20998252012996 218.30000208616252C217.50998252012997 218.80000208616252 217.30998252012995 219.40000208616254 216.80998252012995 219.70000208616253C216.80998252012995 219.70000208616253 214.30998252012995 221.30000208616252 212.30998252012995 222.70000208616253L217.90998252012997 225.90000208616254L268.50998252012994 196.70000208616253L268.50998252012994 190.20000208616253C267.50998252012994 190.50000208616254 266.50998252012994 190.90000208616254 265.70998252013 191.40000208616254L265.50998252012994 191.50000208616254C265.40998252013 191.60000208616253 265.00998252012994 191.20000208616253 264.80998252012995 190.80000208616252L261.30998252012995 184.70000208616253C261.00998252012994 184.20000208616253 260.90998252013 183.80000208616252 261.00998252012994 183.70000208616253C261.10998252012996 183.60000208616253 261.20998252013 183.60000208616253 261.20998252013 183.60000208616253C263.40998252013 182.30000208616252 265.80998252012995 181.30000208616252 268.50998252012994 180.60000208616253L268.50998252012994 123.60000208616253C267.20998252013 123.90000208616253 266.00998252012994 124.40000208616253 264.90998252013 125.00000208616254L157.70998252012996 186.90000208616254C156.60998252012996 187.50000208616254 155.60998252012996 188.30000208616252 154.70998252012996 189.30000208616252L160.40998252012997 192.50000208616254ZM235.80998252012995 208.50000208616254L228.00998252012997 213.00000208616254C227.50998252012997 213.30000208616252 226.90998252012997 213.10000208616253 226.60998252012996 212.60000208616253L223.10998252012996 206.50000208616254C222.80998252012995 206.00000208616254 223.00998252012997 205.40000208616254 223.50998252012997 205.10000208616253L231.30998252012995 200.60000208616253C231.80998252012995 200.30000208616252 232.40998252012997 200.50000208616254 232.70998252012996 201.00000208616254L236.20998252012996 207.10000208616253C236.50998252012997 207.60000208616253 236.30998252012995 208.20000208616253 235.80998252012995 208.50000208616254ZM254.90998252012997 197.50000208616254L247.10998252012996 202.00000208616254C246.60998252012996 202.30000208616252 246.00998252012997 202.10000208616253 245.70998252012996 201.60000208616253L242.20998252012996 195.50000208616254C241.90998252012997 195.00000208616254 242.10998252012996 194.40000208616254 242.60998252012996 194.10000208616253L250.40998252012997 189.60000208616253C250.90998252012997 189.30000208616252 251.50998252012997 189.50000208616254 251.80998252012995 190.00000208616254L255.30998252012995 196.10000208616253C255.50998252012997 196.60000208616253 255.40998252012997 197.20000208616253 254.90998252012997 197.50000208616254ZM250.60998252012996 140.40000208616254L258.30998252012995 136.00000208616254C258.80998252012995 135.70000208616253 259.40998252013 135.90000208616254 259.70998252013 136.40000208616254L263.20998252013 142.50000208616254C263.50998252012994 143.00000208616254 263.30998252012995 143.60000208616253 262.80998252012995 143.90000208616254L255.10998252012996 148.30000208616252C254.60998252012996 148.60000208616253 254.00998252012997 148.40000208616254 253.70998252012996 147.90000208616254L250.20998252012996 141.80000208616252C250.00998252012997 141.30000208616252 250.20998252012996 140.60000208616253 250.60998252012996 140.40000208616254ZM231.80998252012995 151.20000208616253L239.50998252012997 146.80000208616252C240.00998252012997 146.50000208616254 240.60998252012996 146.70000208616253 240.90998252012997 147.20000208616253L244.40998252012997 153.30000208616252C244.70998252012996 153.80000208616252 244.50998252012997 154.40000208616254 244.00998252012997 154.70000208616253L236.30998252012995 159.10000208616253C235.80998252012995 159.40000208616254 235.20998252012996 159.20000208616253 234.90998252012997 158.70000208616253L231.40998252012997 152.60000208616253C231.20998252012996 152.10000208616253 231.30998252012995 151.50000208616254 231.80998252012995 151.20000208616253ZM213.00998252012997 162.10000208616253L220.70998252012996 157.70000208616253C221.20998252012996 157.40000208616254 221.80998252012995 157.60000208616253 222.10998252012996 158.10000208616253L225.60998252012996 164.20000208616253C225.90998252012997 164.70000208616253 225.70998252012996 165.30000208616252 225.20998252012996 165.60000208616253L217.50998252012997 170.00000208616254C217.00998252012997 170.30000208616252 216.40998252012997 170.10000208616253 216.10998252012996 169.60000208616253L212.60998252012996 163.50000208616254C212.30998252012995 163.00000208616254 212.50998252012997 162.40000208616254 213.00998252012997 162.10000208616253ZM194.10998252012996 173.00000208616254L201.80998252012995 168.60000208616253C202.30998252012995 168.30000208616252 202.90998252012997 168.50000208616254 203.20998252012996 169.00000208616254L206.70998252012996 175.10000208616253C207.00998252012997 175.60000208616253 206.80998252012995 176.20000208616253 206.30998252012995 176.50000208616254L198.60998252012996 180.90000208616254C198.10998252012996 181.20000208616253 197.50998252012997 181.00000208616254 197.20998252012996 180.50000208616254L193.70998252012996 174.40000208616254C193.50998252012997 173.90000208616254 193.60998252012996 173.30000208616252 194.10998252012996 173.00000208616254ZM175.30998252012995 183.90000208616254L183.00998252012997 179.50000208616254C183.50998252012997 179.20000208616253 184.10998252012996 179.40000208616254 184.40998252012997 179.90000208616254L187.90998252012997 186.00000208616254C188.20998252012996 186.50000208616254 188.00998252012997 187.10000208616253 187.50998252012997 187.40000208616254L179.80998252012995 191.80000208616252C179.30998252012995 192.10000208616253 178.70998252012996 191.90000208616254 178.40998252012997 191.40000208616254L174.90998252012997 185.30000208616252C174.60998252012996 184.80000208616252 174.80998252012995 184.20000208616253 175.30998252012995 183.90000208616254Z " transform="matrix(2.500000153385506,0,0,2.5,-183.90001651624448,-159)"></path><path fill="#aa36a5" d="M397.30998252012995 197.90000208616252L392.00998252012994 201.0000020861625C392.00998252012994 202.5000020861625 391.80998252012995 204.0000020861625 391.80998252012995 205.5000020861625C391.80998252012995 206.1000020861625 391.40998252013 206.5000020861625 390.80998252012995 206.5000020861625L383.80998252012995 206.5000020861625C383.50998252012994 206.5000020861625 383.20998252013 206.40000208616252 383.10998252012996 206.2000020861625L347.90998252013 226.5000020861625C348.30998252012995 227.7000020861625 348.70998252013 228.90000208616252 348.90998252013 230.2000020861625C349.00998252012994 230.7000020861625 348.60998252012996 231.2000020861625 348.10998252012996 231.3000020861625L341.20998252013 232.2000020861625C340.70998252013 232.3000020861625 340.20998252013 231.90000208616252 340.00998252012994 231.40000208616252C340.00998252012994 231.3000020861625 340.00998252012994 231.2000020861625 339.90998252013 231.1000020861625L334.30998252012995 234.3000020861625L334.30998252012995 292.7000020861625L340.30998252012995 296.2000020861625C340.30998252012995 296.1000020861625 340.30998252012995 296.1000020861625 340.30998252012995 296.00000208616245L340.30998252012995 287.00000208616245C340.30998252012995 286.40000208616254 340.70998252013 286.00000208616245 341.30998252012995 286.00000208616245L348.30998252012995 286.00000208616245C348.90998252013 286.00000208616245 349.30998252012995 286.40000208616254 349.30998252012995 287.00000208616245L349.30998252012995 296.00000208616245C349.30998252012995 296.6000020861625 348.90998252013 297.00000208616245 348.30998252012995 297.00000208616245L341.60998252012996 297.00000208616245L397.30998252012995 329.2000020861625C397.70998252013 327.90000208616254 397.90998252013 326.6000020861625 397.90998252013 325.40000208616254L397.90998252013 201.7000020861625C397.90998252013 200.5000020861625 397.60998252012996 199.2000020861625 397.30998252012995 197.90000208616252ZM349.20998252013 274.8000020861625C349.20998252013 275.40000208616254 348.80998252012995 275.8000020861625 348.20998252013 275.8000020861625L341.20998252013 275.8000020861625C340.60998252012996 275.8000020861625 340.20998252013 275.40000208616254 340.20998252013 274.8000020861625L340.20998252013 265.8000020861625C340.20998252013 265.2000020861625 340.60998252012996 264.8000020861625 341.20998252013 264.8000020861625L348.20998252013 264.8000020861625C348.80998252012995 264.8000020861625 349.20998252013 265.2000020861625 349.20998252013 265.8000020861625L349.20998252013 274.8000020861625ZM349.20998252013 252.8000020861625C349.20998252013 253.40000208616252 348.80998252012995 253.8000020861625 348.20998252013 253.8000020861625L341.20998252013 253.8000020861625C340.60998252012996 253.8000020861625 340.20998252013 253.40000208616252 340.20998252013 252.8000020861625L340.20998252013 243.8000020861625C340.20998252013 243.2000020861625 340.60998252012996 242.8000020861625 341.20998252013 242.8000020861625L348.20998252013 242.8000020861625C348.80998252012995 242.8000020861625 349.20998252013 243.2000020861625 349.20998252013 243.8000020861625L349.20998252013 252.8000020861625ZM391.80998252012995 314.3000020861625C391.80998252012995 314.90000208616254 391.40998252013 315.3000020861625 390.80998252012995 315.3000020861625L383.80998252012995 315.3000020861625C383.20998252013 315.3000020861625 382.80998252012995 314.90000208616254 382.80998252012995 314.3000020861625L382.80998252012995 305.40000208616254C382.80998252012995 304.8000020861625 383.20998252013 304.40000208616254 383.80998252012995 304.40000208616254L390.80998252012995 304.40000208616254C391.40998252013 304.40000208616254 391.80998252012995 304.8000020861625 391.80998252012995 305.40000208616254L391.80998252012995 314.3000020861625ZM391.80998252012995 292.6000020861625C391.80998252012995 293.2000020861625 391.40998252013 293.6000020861625 390.80998252012995 293.6000020861625L383.80998252012995 293.6000020861625C383.20998252013 293.6000020861625 382.80998252012995 293.2000020861625 382.80998252012995 292.6000020861625L382.80998252012995 283.7000020861625C382.80998252012995 283.1000020861625 383.20998252013 282.7000020861625 383.80998252012995 282.7000020861625L390.80998252012995 282.7000020861625C391.40998252013 282.7000020861625 391.80998252012995 283.1000020861625 391.80998252012995 283.7000020861625L391.80998252012995 292.6000020861625ZM391.80998252012995 270.8000020861625C391.80998252012995 271.40000208616254 391.40998252013 271.8000020861625 390.80998252012995 271.8000020861625L383.80998252012995 271.8000020861625C383.20998252013 271.8000020861625 382.80998252012995 271.40000208616254 382.80998252012995 270.8000020861625L382.80998252012995 261.90000208616254C382.80998252012995 261.3000020861625 383.20998252013 260.90000208616254 383.80998252012995 260.90000208616254L390.80998252012995 260.90000208616254C391.40998252013 260.90000208616254 391.80998252012995 261.3000020861625 391.80998252012995 261.90000208616254L391.80998252012995 270.8000020861625ZM391.80998252012995 249.1000020861625C391.80998252012995 249.7000020861625 391.40998252013 250.1000020861625 390.80998252012995 250.1000020861625L383.80998252012995 250.1000020861625C383.20998252013 250.1000020861625 382.80998252012995 249.7000020861625 382.80998252012995 249.1000020861625L382.80998252012995 240.2000020861625C382.80998252012995 239.6000020861625 383.20998252013 239.2000020861625 383.80998252012995 239.2000020861625L390.80998252012995 239.2000020861625C391.40998252013 239.2000020861625 391.80998252012995 239.6000020861625 391.80998252012995 240.2000020861625L391.80998252012995 249.1000020861625ZM391.80998252012995 227.3000020861625C391.80998252012995 227.90000208616252 391.40998252013 228.3000020861625 390.80998252012995 228.3000020861625L383.80998252012995 228.3000020861625C383.20998252013 228.3000020861625 382.80998252012995 227.90000208616252 382.80998252012995 227.3000020861625L382.80998252012995 218.40000208616252C382.80998252012995 217.8000020861625 383.20998252013 217.40000208616252 383.80998252012995 217.40000208616252L390.80998252012995 217.40000208616252C391.40998252013 217.40000208616252 391.80998252012995 217.8000020861625 391.80998252012995 218.40000208616252L391.80998252012995 227.3000020861625Z " transform="matrix(2.500000153385506,0,0,2.5,-183.90001651624448,-159)"></path><path fill="#aa36a5" d="M386.80998252012995 334.7000020861625L383.00998252012994 336.9000020861625C382.50998252012994 337.2000020861625 381.90998252013 337.00000208616245 381.60998252012996 336.50000208616245L378.10998252012996 330.4000020861625C378.00998252012994 330.1000020861625 377.90998252013 329.9000020861625 378.00998252012994 329.6000020861625L337.70998252013 306.4000020861625L340.60998252012996 311.50000208616245C340.90998252013 312.00000208616245 340.70998252013 312.6000020861625 340.20998252013 312.9000020861625L332.40998252013 317.4000020861625C331.90998252013 317.7000020861625 331.30998252012995 317.50000208616245 331.00998252012994 317.00000208616245L327.50998252012994 310.9000020861625C327.20998252013 310.4000020861625 327.40998252013 309.80000208616246 327.90998252013 309.50000208616245L335.50998252012994 305.1000020861625L329.10998252012996 301.4000020861625L278.60998252012996 330.7000020861625L278.60998252012996 337.2000020861625C278.80998252012995 337.1000020861625 279.00998252012994 337.1000020861625 279.20998252013 337.00000208616245C279.70998252013 336.80000208616246 280.30998252012995 337.00000208616245 280.50998252012994 337.50000208616245L283.30998252012995 343.9000020861625C283.50998252012994 344.4000020861625 283.30998252012995 345.00000208616245 282.80998252012995 345.2000020861625C281.40998252013 345.7000020861625 280.00998252012994 346.1000020861625 278.50998252012994 346.4000020861625L278.50998252012994 403.6000020861625C279.80998252012995 403.30000208616246 281.00998252012994 402.80000208616246 282.10998252012996 402.2000020861625L389.30998252012995 340.30000208616246C390.40998252013 339.7000020861625 391.40998252013 338.9000020861625 392.30998252012995 337.9000020861625L386.80998252012995 334.7000020861625ZM309.20998252013 319.9000020861625L317.00998252012994 315.4000020861625C317.50998252012994 315.1000020861625 318.10998252012996 315.30000208616246 318.40998252013 315.80000208616246L321.90998252013 321.9000020861625C322.20998252013 322.4000020861625 322.00998252012994 323.00000208616245 321.50998252012994 323.30000208616246L313.70998252013 327.80000208616246C313.20998252013 328.1000020861625 312.60998252012996 327.9000020861625 312.30998252012995 327.4000020861625L308.80998252012995 321.30000208616246C308.60998252012996 320.80000208616246 308.70998252013 320.2000020861625 309.20998252013 319.9000020861625ZM296.40998252013 386.9000020861625L288.70998252013 391.30000208616246C288.20998252013 391.6000020861625 287.60998252012996 391.4000020861625 287.30998252012995 390.9000020861625L283.80998252012995 384.80000208616246C283.50998252012994 384.30000208616246 283.70998252013 383.7000020861625 284.20998252013 383.4000020861625L291.90998252013 379.00000208616245C292.40998252013 378.7000020861625 293.00998252012994 378.9000020861625 293.30998252012995 379.4000020861625L296.80998252012995 385.50000208616245C297.10998252012996 386.00000208616245 296.90998252013 386.6000020861625 296.40998252013 386.9000020861625ZM294.60998252012996 338.7000020861625C294.10998252012996 339.00000208616245 293.50998252012994 338.80000208616246 293.20998252013 338.30000208616246L289.70998252013 332.2000020861625C289.40998252013 331.7000020861625 289.60998252012996 331.1000020861625 290.10998252012996 330.80000208616246L297.90998252013 326.30000208616246C298.40998252013 326.00000208616245 299.00998252012994 326.2000020861625 299.30998252012995 326.7000020861625L302.80998252012995 332.80000208616246C303.10998252012996 333.30000208616246 302.90998252013 333.9000020861625 302.40998252013 334.2000020861625L294.60998252012996 338.7000020861625ZM315.30998252012995 376.00000208616245L307.60998252012996 380.4000020861625C307.10998252012996 380.7000020861625 306.50998252012994 380.50000208616245 306.20998252013 380.00000208616245L302.70998252013 373.9000020861625C302.40998252013 373.4000020861625 302.60998252012996 372.80000208616246 303.10998252012996 372.50000208616245L310.80998252012995 368.1000020861625C311.30998252012995 367.80000208616246 311.90998252013 368.00000208616245 312.20998252013 368.50000208616245L315.70998252013 374.6000020861625C315.90998252013 375.1000020861625 315.80998252012995 375.7000020861625 315.30998252012995 376.00000208616245ZM334.10998252012996 365.1000020861625L326.40998252013 369.50000208616245C325.90998252013 369.80000208616246 325.30998252012995 369.6000020861625 325.00998252012994 369.1000020861625L321.50998252012994 363.00000208616245C321.20998252013 362.50000208616245 321.40998252013 361.9000020861625 321.90998252013 361.6000020861625L329.60998252012996 357.2000020861625C330.10998252012996 356.9000020861625 330.70998252013 357.1000020861625 331.00998252012994 357.6000020861625L334.50998252012994 363.7000020861625C334.80998252012995 364.2000020861625 334.60998252012996 364.80000208616246 334.10998252012996 365.1000020861625ZM353.00998252012994 354.2000020861625L345.30998252012995 358.6000020861625C344.80998252012995 358.9000020861625 344.20998252013 358.7000020861625 343.90998252013 358.2000020861625L340.40998252013 352.1000020861625C340.10998252012996 351.6000020861625 340.30998252012995 351.00000208616245 340.80998252012995 350.7000020861625L348.50998252012994 346.30000208616246C349.00998252012994 346.00000208616245 349.60998252012996 346.2000020861625 349.90998252013 346.7000020861625L353.40998252013 352.80000208616246C353.60998252012996 353.30000208616246 353.40998252013 354.00000208616245 353.00998252012994 354.2000020861625ZM371.80998252012995 343.4000020861625L364.10998252012996 347.80000208616246C363.60998252012996 348.1000020861625 363.00998252012994 347.9000020861625 362.70998252013 347.4000020861625L359.20998252013 341.30000208616246C358.90998252013 340.80000208616246 359.10998252012996 340.2000020861625 359.60998252012996 339.9000020861625L367.30998252012995 335.50000208616245C367.80998252012995 335.2000020861625 368.40998252013 335.4000020861625 368.70998252013 335.9000020861625L372.20998252013 342.00000208616245C372.50998252012994 342.50000208616245 372.30998252012995 343.1000020861625 371.80998252012995 343.4000020861625Z " transform="matrix(2.500000153385506,0,0,2.5,-183.90001651624448,-159)"></path><g transform="matrix(5.000000306771012,0,0,5,-183.90001651624448,-159)"></g></g></svg>