<svg xmlns="http://www.w3.org/2000/svg" width="1000" height="1000" id="empty" style=""><g id="icon"><path fill="#00acee" d="M270.3196785555373 230.33813014740642C260.8196785555373 241.53813014740643 258.41967855553725 257.43813014740647 256.11967855553723 271.43813014740647C253.91967855553725 285.03813014740643 252.41967855553725 301.83813014740645 238.51967855553727 308.93813014740647C229.81967855553725 313.33813014740645 220.31967855553725 308.1381301474064 212.81967855553725 303.83813014740645C206.11967855553726 300.0381301474064 199.31967855553725 296.7381301474064 191.41967855553725 296.6381301474064C182.41967855553725 296.5381301474064 174.11967855553726 299.1381301474064 166.01967855553727 302.83813014740645C155.41967855553725 307.7381301474064 142.21967855553726 310.1381301474064 130.41967855553725 311.5381301474064C126.91967855553726 311.93813014740647 129.61967855553726 316.5381301474064 128.11967855553726 318.5381301474064C127.21967855553726 319.7381301474064 127.21967855553726 320.5381301474064 128.11967855553726 320.43813014740647C138.41967855553725 319.5381301474064 149.91967855553725 314.43813014740647 159.11967855553726 309.93813014740647C169.81967855553725 304.7381301474064 180.21967855553726 298.0381301474064 192.61967855553726 300.7381301474064C201.41967855553725 302.6381301474064 208.51967855553727 308.93813014740647 216.81967855553725 312.1381301474064C224.71967855553726 315.1381301474064 233.41967855553725 314.2381301474064 241.11967855553726 311.2381301474064C255.61967855553726 305.43813014740647 260.51967855553727 290.83813014740645 262.71967855553726 276.7381301474064C265.11967855553723 261.2381301474064 266.71967855553726 242.43813014740644 277.3196785555373 229.93813014740644C279.21967855553726 227.83813014740642 271.71967855553726 228.73813014740642 270.3196785555373 230.33813014740642L270.3196785555373 230.33813014740642Z " transform="matrix(2.8458175937819203,0,0,2.8458178645034424,-212.68432942702765,-309.17449230432663)"></path><path fill="#00acee" d="M317.41967855553725 204.13813014740643C286.51967855553727 204.13813014740643 261.41967855553725 229.23813014740642 261.41967855553725 260.1381301474064C261.41967855553725 291.03813014740643 286.51967855553727 316.1381301474064 317.41967855553725 316.1381301474064C348.3196785555373 316.1381301474064 373.41967855553725 291.03813014740643 373.41967855553725 260.1381301474064C373.41967855553725 229.23813014740642 348.3196785555373 204.13813014740643 317.41967855553725 204.13813014740643ZM317.41967855553725 214.63813014740643C325.21967855553726 214.63813014740643 331.61967855553723 221.03813014740643 331.61967855553723 228.83813014740642C331.61967855553723 236.63813014740643 325.21967855553726 243.03813014740643 317.41967855553725 243.03813014740643C309.61967855553723 243.03813014740643 303.21967855553726 236.63813014740643 303.21967855553726 228.83813014740642C303.21967855553726 220.93813014740644 309.51967855553727 214.63813014740643 317.41967855553725 214.63813014740643ZM274.11967855553723 246.03813014740643C276.51967855553727 238.53813014740643 284.51967855553727 234.53813014740643 292.01967855553727 236.93813014740644C299.51967855553727 239.33813014740642 303.51967855553727 247.33813014740642 301.11967855553723 254.83813014740642C298.71967855553726 262.33813014740645 290.71967855553726 266.33813014740645 283.21967855553726 263.93813014740647C275.8196785555373 261.53813014740643 271.71967855553726 253.43813014740644 274.11967855553723 246.03813014740643ZM310.51967855553727 293.7381301474064C305.91967855553725 300.0381301474064 297.01967855553727 301.43813014740647 290.71967855553726 296.83813014740645C284.41967855553725 292.2381301474064 283.01967855553727 283.33813014740645 287.61967855553723 277.03813014740643C292.21967855553726 270.7381301474064 301.11967855553723 269.33813014740645 307.41967855553725 273.93813014740647C313.71967855553726 278.53813014740643 315.11967855553723 287.43813014740647 310.51967855553727 293.7381301474064ZM310.71967855553726 260.1381301474064C310.71967855553726 256.43813014740647 313.71967855553726 253.43813014740644 317.41967855553725 253.43813014740644C321.11967855553723 253.43813014740644 324.11967855553723 256.43813014740647 324.11967855553723 260.1381301474064C324.11967855553723 263.83813014740645 321.11967855553723 266.83813014740645 317.41967855553725 266.83813014740645C313.71967855553726 266.83813014740645 310.71967855553726 263.83813014740645 310.71967855553726 260.1381301474064ZM344.11967855553723 296.93813014740647C337.8196785555373 301.5381301474064 328.91967855553725 300.1381301474064 324.3196785555373 293.83813014740645C319.71967855553726 287.53813014740643 321.11967855553723 278.6381301474064 327.41967855553725 274.03813014740643C333.71967855553726 269.43813014740647 342.61967855553723 270.83813014740645 347.21967855553726 277.1381301474064C351.91967855553725 283.43813014740647 350.41967855553725 292.33813014740645 344.11967855553723 296.93813014740647ZM351.51967855553727 263.93813014740647C344.01967855553727 266.33813014740645 336.01967855553727 262.2381301474064 333.61967855553723 254.83813014740642C331.21967855553726 247.33813014740642 335.3196785555373 239.33813014740642 342.71967855553726 236.93813014740644C350.21967855553726 234.53813014740643 358.21967855553726 238.63813014740643 360.61967855553723 246.03813014740643C363.01967855553727 253.43813014740644 359.01967855553727 261.53813014740643 351.51967855553727 263.93813014740647Z " transform="matrix(2.8458175937819203,0,0,2.8458178645034424,-212.68432942702765,-309.17449230432663)"></path><path fill="#aa36a5" d="M344.3196785555373 314.83813014740645C340.91967855553725 316.5381301474064 337.41967855553725 317.83813014740645 333.71967855553726 318.93813014740647L333.71967855553726 343.33813014740645L188.81967855553725 343.33813014740645L188.81967855553725 257.33813014740645L253.51967855553727 257.33813014740645C253.91967855553725 255.23813014740642 254.41967855553725 253.13813014740643 255.01967855553727 251.03813014740643C254.91967855553725 250.83813014740642 254.91967855553725 250.63813014740643 254.91967855553725 250.43813014740644L254.91967855553725 242.83813014740642C254.91967855553725 241.73813014740642 255.81967855553725 240.83813014740642 256.91967855553725 240.83813014740642L258.3196785555373 240.83813014740642C259.01967855553727 239.23813014740642 259.71967855553726 237.63813014740643 260.51967855553727 236.13813014740643L151.51967855553727 236.13813014740643L151.51967855553727 240.83813014740642L155.51967855553727 240.83813014740642C156.61967855553726 240.83813014740642 157.51967855553727 241.73813014740642 157.51967855553727 242.83813014740642L157.51967855553727 250.43813014740644C157.51967855553727 251.53813014740643 156.61967855553726 252.43813014740644 155.51967855553727 252.43813014740644L151.51967855553727 252.43813014740644L151.51967855553727 257.33813014740645L178.31967855553725 257.33813014740645L178.31967855553725 343.33813014740645L151.51967855553727 343.33813014740645L151.51967855553727 348.2381301474064L155.51967855553727 348.2381301474064C156.61967855553726 348.2381301474064 157.51967855553727 349.1381301474064 157.51967855553727 350.2381301474064L157.51967855553727 357.83813014740645C157.51967855553727 358.93813014740647 156.61967855553726 359.83813014740645 155.51967855553727 359.83813014740645L151.51967855553727 359.83813014740645L151.51967855553727 364.5381301474064L371.51967855553727 364.5381301474064L371.51967855553727 359.6381301474064L367.01967855553727 359.6381301474064C365.91967855553725 359.6381301474064 365.01967855553727 358.7381301474064 365.01967855553727 357.6381301474064L365.01967855553727 350.0381301474064C365.01967855553727 348.93813014740647 365.91967855553725 348.0381301474064 367.01967855553727 348.0381301474064L371.51967855553727 348.0381301474064L371.51967855553727 343.1381301474064L344.3196785555373 343.1381301474064L344.3196785555373 314.83813014740645ZM232.91967855553725 242.83813014740642C232.91967855553725 241.73813014740642 233.81967855553725 240.83813014740642 234.91967855553725 240.83813014740642L243.61967855553726 240.83813014740642C244.71967855553726 240.83813014740642 245.61967855553726 241.73813014740642 245.61967855553726 242.83813014740642L245.61967855553726 250.43813014740644C245.61967855553726 251.53813014740643 244.71967855553726 252.43813014740644 243.61967855553726 252.43813014740644L234.91967855553725 252.43813014740644C233.81967855553725 252.43813014740644 232.91967855553725 251.53813014740643 232.91967855553725 250.43813014740644L232.91967855553725 242.83813014740642ZM210.91967855553725 242.83813014740642C210.91967855553725 241.73813014740642 211.81967855553725 240.83813014740642 212.91967855553725 240.83813014740642L221.61967855553726 240.83813014740642C222.71967855553726 240.83813014740642 223.61967855553726 241.73813014740642 223.61967855553726 242.83813014740642L223.61967855553726 250.43813014740644C223.61967855553726 251.53813014740643 222.71967855553726 252.43813014740644 221.61967855553726 252.43813014740644L212.91967855553725 252.43813014740644C211.81967855553725 252.43813014740644 210.91967855553725 251.53813014740643 210.91967855553725 250.43813014740644L210.91967855553725 242.83813014740642ZM188.91967855553725 242.83813014740642C188.91967855553725 241.73813014740642 189.81967855553725 240.83813014740642 190.91967855553725 240.83813014740642L199.61967855553726 240.83813014740642C200.71967855553726 240.83813014740642 201.61967855553726 241.73813014740642 201.61967855553726 242.83813014740642L201.61967855553726 250.43813014740644C201.61967855553726 251.53813014740643 200.71967855553726 252.43813014740644 199.61967855553726 252.43813014740644L190.91967855553725 252.43813014740644C189.81967855553725 252.43813014740644 188.91967855553725 251.53813014740643 188.91967855553725 250.43813014740644L188.91967855553725 242.83813014740642ZM177.51967855553727 252.43813014740644L168.81967855553725 252.43813014740644C167.71967855553726 252.43813014740644 166.81967855553725 251.53813014740643 166.81967855553725 250.43813014740644L166.81967855553725 242.83813014740642C166.81967855553725 241.73813014740642 167.71967855553726 240.83813014740642 168.81967855553725 240.83813014740642L177.51967855553727 240.83813014740642C178.61967855553726 240.83813014740642 179.51967855553727 241.73813014740642 179.51967855553727 242.83813014740642L179.51967855553727 250.43813014740644C179.51967855553727 251.53813014740643 178.61967855553726 252.43813014740644 177.51967855553727 252.43813014740644ZM179.51967855553727 357.6381301474064C179.51967855553727 358.7381301474064 178.61967855553726 359.6381301474064 177.51967855553727 359.6381301474064L168.81967855553725 359.6381301474064C167.71967855553726 359.6381301474064 166.81967855553725 358.7381301474064 166.81967855553725 357.6381301474064L166.81967855553725 350.0381301474064C166.81967855553725 348.93813014740647 167.71967855553726 348.0381301474064 168.81967855553725 348.0381301474064L177.51967855553727 348.0381301474064C178.61967855553726 348.0381301474064 179.51967855553727 348.93813014740647 179.51967855553727 350.0381301474064L179.51967855553727 357.6381301474064ZM201.61967855553726 357.6381301474064C201.61967855553726 358.7381301474064 200.71967855553726 359.6381301474064 199.61967855553726 359.6381301474064L190.91967855553725 359.6381301474064C189.81967855553725 359.6381301474064 188.91967855553725 358.7381301474064 188.91967855553725 357.6381301474064L188.91967855553725 350.0381301474064C188.91967855553725 348.93813014740647 189.81967855553725 348.0381301474064 190.91967855553725 348.0381301474064L199.61967855553726 348.0381301474064C200.71967855553726 348.0381301474064 201.61967855553726 348.93813014740647 201.61967855553726 350.0381301474064L201.61967855553726 357.6381301474064ZM223.61967855553726 357.6381301474064C223.61967855553726 358.7381301474064 222.71967855553726 359.6381301474064 221.61967855553726 359.6381301474064L212.91967855553725 359.6381301474064C211.81967855553725 359.6381301474064 210.91967855553725 358.7381301474064 210.91967855553725 357.6381301474064L210.91967855553725 350.0381301474064C210.91967855553725 348.93813014740647 211.81967855553725 348.0381301474064 212.91967855553725 348.0381301474064L221.61967855553726 348.0381301474064C222.71967855553726 348.0381301474064 223.61967855553726 348.93813014740647 223.61967855553726 350.0381301474064L223.61967855553726 357.6381301474064ZM245.61967855553726 357.6381301474064C245.61967855553726 358.7381301474064 244.71967855553726 359.6381301474064 243.61967855553726 359.6381301474064L234.91967855553725 359.6381301474064C233.81967855553725 359.6381301474064 232.91967855553725 358.7381301474064 232.91967855553725 357.6381301474064L232.91967855553725 350.0381301474064C232.91967855553725 348.93813014740647 233.81967855553725 348.0381301474064 234.91967855553725 348.0381301474064L243.61967855553726 348.0381301474064C244.71967855553726 348.0381301474064 245.61967855553726 348.93813014740647 245.61967855553726 350.0381301474064L245.61967855553726 357.6381301474064ZM267.61967855553723 357.6381301474064C267.61967855553723 358.7381301474064 266.71967855553726 359.6381301474064 265.61967855553723 359.6381301474064L256.91967855553725 359.6381301474064C255.81967855553725 359.6381301474064 254.91967855553725 358.7381301474064 254.91967855553725 357.6381301474064L254.91967855553725 350.0381301474064C254.91967855553725 348.93813014740647 255.81967855553725 348.0381301474064 256.91967855553725 348.0381301474064L265.61967855553723 348.0381301474064C266.71967855553726 348.0381301474064 267.61967855553723 348.93813014740647 267.61967855553723 350.0381301474064L267.61967855553723 357.6381301474064ZM289.61967855553723 357.6381301474064C289.61967855553723 358.7381301474064 288.71967855553726 359.6381301474064 287.61967855553723 359.6381301474064L278.91967855553725 359.6381301474064C277.8196785555373 359.6381301474064 276.91967855553725 358.7381301474064 276.91967855553725 357.6381301474064L276.91967855553725 350.0381301474064C276.91967855553725 348.93813014740647 277.8196785555373 348.0381301474064 278.91967855553725 348.0381301474064L287.61967855553723 348.0381301474064C288.71967855553726 348.0381301474064 289.61967855553723 348.93813014740647 289.61967855553723 350.0381301474064L289.61967855553723 357.6381301474064ZM311.61967855553723 357.6381301474064C311.61967855553723 358.7381301474064 310.71967855553726 359.6381301474064 309.61967855553723 359.6381301474064L300.91967855553725 359.6381301474064C299.8196785555373 359.6381301474064 298.91967855553725 358.7381301474064 298.91967855553725 357.6381301474064L298.91967855553725 350.0381301474064C298.91967855553725 348.93813014740647 299.8196785555373 348.0381301474064 300.91967855553725 348.0381301474064L309.61967855553723 348.0381301474064C310.71967855553726 348.0381301474064 311.61967855553723 348.93813014740647 311.61967855553723 350.0381301474064L311.61967855553723 357.6381301474064ZM333.71967855553726 357.6381301474064C333.71967855553726 358.7381301474064 332.8196785555373 359.6381301474064 331.71967855553726 359.6381301474064L323.01967855553727 359.6381301474064C321.91967855553725 359.6381301474064 321.01967855553727 358.7381301474064 321.01967855553727 357.6381301474064L321.01967855553727 350.0381301474064C321.01967855553727 348.93813014740647 321.91967855553725 348.0381301474064 323.01967855553727 348.0381301474064L331.71967855553726 348.0381301474064C332.8196785555373 348.0381301474064 333.71967855553726 348.93813014740647 333.71967855553726 350.0381301474064L333.71967855553726 357.6381301474064ZM345.01967855553727 348.1381301474064L353.71967855553726 348.1381301474064C354.8196785555373 348.1381301474064 355.71967855553726 349.0381301474064 355.71967855553726 350.1381301474064L355.71967855553726 357.7381301474064C355.71967855553726 358.83813014740645 354.8196785555373 359.7381301474064 353.71967855553726 359.7381301474064L345.01967855553727 359.7381301474064C343.91967855553725 359.7381301474064 343.01967855553727 358.83813014740645 343.01967855553727 357.7381301474064L343.01967855553727 350.1381301474064C343.01967855553727 349.0381301474064 343.91967855553725 348.1381301474064 345.01967855553727 348.1381301474064Z " transform="matrix(2.8458175937819203,0,0,2.8458178645034424,-212.68432942702765,-309.17449230432663)"></path><g transform="matrix(5.691635187563841,0,0,5.691635729006885,-212.68432942702765,-309.17449230432663)"></g></g></svg>